<svg xmlns="http://www.w3.org/2000/svg" xmlns:xlink="http://www.w3.org/1999/xlink" width="24" height="24"><defs><clipPath id="b"><rect width="24" height="24"/></clipPath></defs><g id="a" clip-path="url(#b)"><path d="M-839.19-1501.6a5.376,5.376,0,0,1-3.567-1.379A4.342,4.342,0,0,1-844-1506.2a4.6,4.6,0,0,1,4.258-4.583.256.256,0,0,0,.231-.205,7.69,7.69,0,0,1,6.274-5.917l.1-.015a7.689,7.689,0,0,1,1.125-.084h.073a7.7,7.7,0,0,1,6.373,3.479q.08.122.156.248l.006.01.006.009h0a.253.253,0,0,0,.075.068l0,0,.008,0,.006,0,.007,0,.006,0,.01,0h0a.249.249,0,0,0,.064.015,5.717,5.717,0,0,1,3.441,1.587,5.83,5.83,0,0,1,1.776,4.174v0a5.821,5.821,0,0,1-5.185,5.781l-.033,0a.861.861,0,0,1-.1.005Zm.017-2.043h13.78a3.786,3.786,0,0,0,3.344-3.618q0-.067,0-.134a3.747,3.747,0,0,0-1.137-2.69l-.008-.008a3.739,3.739,0,0,0-.788-.582l-.007,0-.009-.005a3.745,3.745,0,0,0-1.793-.457l-.143,0a.978.978,0,0,1-.96-.582,5.65,5.65,0,0,0-3.069-2.858,5.643,5.643,0,0,0-3.113-.28,5.64,5.64,0,0,0-3.178,1.824,5.643,5.643,0,0,0-1.391,3.391,1.018,1.018,0,0,1-.033.2,1.021,1.021,0,0,1-.366.548,1.014,1.014,0,0,1-.476.2,1.024,1.024,0,0,1-.351-.01,2.546,2.546,0,0,0-.528-.055,2.559,2.559,0,0,0-2.557,2.559,2.347,2.347,0,0,0,.63,1.764,3.373,3.373,0,0,0,1.427.71A3.37,3.37,0,0,0-839.173-1503.638Z" transform="translate(844 1521)"/></g></svg>